<?xml version="1.0" encoding="utf-8" ?>
<svg baseProfile="full" height="57.5mm" version="1.1" viewBox="0,0,306.20000000000005,57.5" width="306.20000000000005mm" xmlns="http://www.w3.org/2000/svg" xmlns:ev="http://www.w3.org/2001/xml-events" xmlns:xlink="http://www.w3.org/1999/xlink"><defs /><rect fill="#FFFFFF" height="57.5" width="306.20000000000005" x="0" y="0" /><text fill="#000000" style="font-size:6px; font-family:Arial; font-weight:bold;" x="10" y="10" /><text fill="#000000" style="font-size:3px; font-family:Arial;" x="10" y="14.4">2024: 272 hours</text><text fill="#000000" style="font-size:2.5px; font-family:Arial" x="10" y="18.3">Jan</text><rect fill="#EBEDF0" height="4" rx="1" ry="1" width="4" x="10" y="19.7"><title>2024-01-01</title></rect><rect fill="#ace7ae" height="4" rx="1" ry="1" width="4" x="10" y="25.1"><title>2024-01-02 0.18 mins</title></rect><rect fill="#EBEDF0" height="4" rx="1" ry="1" width="4" x="10" y="30.5"><title>2024-01-03</title></rect><rect fill="#EBEDF0" height="4" rx="1" ry="1" width="4" x="10" y="35.9"><title>2024-01-04</title></rect><rect fill="#ace7ae" height="4" rx="1" ry="1" width="4" x="10" y="41.300000000000004"><title>2024-01-05 3.4 mins</title></rect><rect fill="#abe6ad" height="4" rx="1" ry="1" width="4" x="10" y="46.699999999999996"><title>2024-01-06 12.57 mins</title></rect><rect fill="#abe7ad" height="4" rx="1" ry="1" width="4" x="10" y="52.1"><title>2024-01-07 5.3 mins</title></rect><rect fill="#68c06d" height="4" rx="1" ry="1" width="4" x="15.4" y="19.7"><title>2024-01-08 26.7 mins</title></rect><rect fill="#68c06d" height="4" rx="1" ry="1" width="4" x="15.4" y="25.1"><title>2024-01-09 30.38 mins</title></rect><rect fill="#69c16e" height="4" rx="1" ry="1" width="4" x="15.4" y="30.5"><title>2024-01-10 14.53 mins</title></rect><rect fill="#EBEDF0" height="4" rx="1" ry="1" width="4" x="15.4" y="35.9"><title>2024-01-11</title></rect><rect fill="#ace7ae" height="4" rx="1" ry="1" width="4" x="15.4" y="41.300000000000004"><title>2024-01-12 0.32 mins</title></rect><rect fill="#abe6ad" height="4" rx="1" ry="1" width="4" x="15.4" y="46.699999999999996"><title>2024-01-13 12.28 mins</title></rect><rect fill="#EBEDF0" height="4" rx="1" ry="1" width="4" x="15.4" y="52.1"><title>2024-01-14</title></rect><rect fill="#EBEDF0" height="4" rx="1" ry="1" width="4" x="20.8" y="19.7"><title>2024-01-15</title></rect><rect fill="#abe7ae" height="4" rx="1" ry="1" width="4" x="20.8" y="25.1"><title>2024-01-16 5.0 mins</title></rect><rect fill="#EBEDF0" height="4" rx="1" ry="1" width="4" x="20.8" y="30.5"><title>2024-01-17</title></rect><rect fill="#EBEDF0" height="4" rx="1" ry="1" width="4" x="20.8" y="35.9"><title>2024-01-18</title></rect><rect fill="#ace7ae" height="4" rx="1" ry="1" width="4" x="20.8" y="41.300000000000004"><title>2024-01-19 0.05 mins</title></rect><rect fill="#EBEDF0" height="4" rx="1" ry="1" width="4" x="20.8" y="46.699999999999996"><title>2024-01-20</title></rect><rect fill="#EBEDF0" height="4" rx="1" ry="1" width="4" x="20.8" y="52.1"><title>2024-01-21</title></rect><rect fill="#EBEDF0" height="4" rx="1" ry="1" width="4" x="26.200000000000003" y="19.7"><title>2024-01-22</title></rect><rect fill="#EBEDF0" height="4" rx="1" ry="1" width="4" x="26.200000000000003" y="25.1"><title>2024-01-23</title></rect><rect fill="#ace7ae" height="4" rx="1" ry="1" width="4" x="26.200000000000003" y="30.5"><title>2024-01-24 4.88 mins</title></rect><rect fill="#EBEDF0" height="4" rx="1" ry="1" width="4" x="26.200000000000003" y="35.9"><title>2024-01-25</title></rect><rect fill="#EBEDF0" height="4" rx="1" ry="1" width="4" x="26.200000000000003" y="41.300000000000004"><title>2024-01-26</title></rect><rect fill="#EBEDF0" height="4" rx="1" ry="1" width="4" x="26.200000000000003" y="46.699999999999996"><title>2024-01-27</title></rect><rect fill="#abe7ad" height="4" rx="1" ry="1" width="4" x="26.200000000000003" y="52.1"><title>2024-01-28 6.42 mins</title></rect><rect fill="#EBEDF0" height="4" rx="1" ry="1" width="4" x="31.6" y="19.7"><title>2024-01-29</title></rect><rect fill="#EBEDF0" height="4" rx="1" ry="1" width="4" x="31.6" y="25.1"><title>2024-01-30</title></rect><rect fill="#EBEDF0" height="4" rx="1" ry="1" width="4" x="31.6" y="30.5"><title>2024-01-31</title></rect><rect fill="#EBEDF0" height="4" rx="1" ry="1" width="4" x="31.6" y="35.9"><title>2024-02-01</title></rect><rect fill="#EBEDF0" height="4" rx="1" ry="1" width="4" x="31.6" y="41.300000000000004"><title>2024-02-02</title></rect><rect fill="#EBEDF0" height="4" rx="1" ry="1" width="4" x="31.6" y="46.699999999999996"><title>2024-02-03</title></rect><rect fill="#68c06d" height="4" rx="1" ry="1" width="4" x="31.6" y="52.1"><title>2024-02-04 22.9 mins</title></rect><text fill="#000000" style="font-size:2.5px; font-family:Arial" x="37.0" y="18.3">Feb</text><rect fill="#68c06d" height="4" rx="1" ry="1" width="4" x="37.0" y="19.7"><title>2024-02-05 22.28 mins</title></rect><rect fill="#abe7ad" height="4" rx="1" ry="1" width="4" x="37.0" y="25.1"><title>2024-02-06 7.48 mins</title></rect><rect fill="#549F57" height="4" rx="1" ry="1" width="4" x="37.0" y="30.5"><title>2024-02-07 61.68 mins</title></rect><rect fill="#549F57" height="4" rx="1" ry="1" width="4" x="37.0" y="35.9"><title>2024-02-08 40.27 mins</title></rect><rect fill="#549F57" height="4" rx="1" ry="1" width="4" x="37.0" y="41.300000000000004"><title>2024-02-09 45.25 mins</title></rect><rect fill="#69c16e" height="4" rx="1" ry="1" width="4" x="37.0" y="46.699999999999996"><title>2024-02-10 17.42 mins</title></rect><rect fill="#549F57" height="4" rx="1" ry="1" width="4" x="37.0" y="52.1"><title>2024-02-11 67.75 mins</title></rect><rect fill="#ace7ae" height="4" rx="1" ry="1" width="4" x="42.4" y="19.7"><title>2024-02-12 2.67 mins</title></rect><rect fill="#68c06d" height="4" rx="1" ry="1" width="4" x="42.4" y="25.1"><title>2024-02-13 28.6 mins</title></rect><rect fill="#68c06d" height="4" rx="1" ry="1" width="4" x="42.4" y="30.5"><title>2024-02-14 26.63 mins</title></rect><rect fill="#549F57" height="4" rx="1" ry="1" width="4" x="42.4" y="35.9"><title>2024-02-15 43.45 mins</title></rect><rect fill="#ace7ae" height="4" rx="1" ry="1" width="4" x="42.4" y="41.300000000000004"><title>2024-02-16 3.77 mins</title></rect><rect fill="#549F57" height="4" rx="1" ry="1" width="4" x="42.4" y="46.699999999999996"><title>2024-02-17 83.33 mins</title></rect><rect fill="#68c16d" height="4" rx="1" ry="1" width="4" x="42.4" y="52.1"><title>2024-02-18 19.88 mins</title></rect><rect fill="#68c06d" height="4" rx="1" ry="1" width="4" x="47.8" y="19.7"><title>2024-02-19 30.45 mins</title></rect><rect fill="#abe6ad" height="4" rx="1" ry="1" width="4" x="47.8" y="25.1"><title>2024-02-20 11.63 mins</title></rect><rect fill="#ace7ae" height="4" rx="1" ry="1" width="4" x="47.8" y="30.5"><title>2024-02-21 3.32 mins</title></rect><rect fill="#549F57" height="4" rx="1" ry="1" width="4" x="47.8" y="35.9"><title>2024-02-22 56.47 mins</title></rect><rect fill="#abe6ad" height="4" rx="1" ry="1" width="4" x="47.8" y="41.300000000000004"><title>2024-02-23 12.48 mins</title></rect><rect fill="#abe7ad" height="4" rx="1" ry="1" width="4" x="47.8" y="46.699999999999996"><title>2024-02-24 10.73 mins</title></rect><rect fill="#ace7ae" height="4" rx="1" ry="1" width="4" x="47.8" y="52.1"><title>2024-02-25 2.15 mins</title></rect><rect fill="#ace7ae" height="4" rx="1" ry="1" width="4" x="53.199999999999996" y="19.7"><title>2024-02-26 0.63 mins</title></rect><rect fill="#549F57" height="4" rx="1" ry="1" width="4" x="53.199999999999996" y="25.1"><title>2024-02-27 365.38 mins</title></rect><rect fill="#abe7ad" height="4" rx="1" ry="1" width="4" x="53.199999999999996" y="30.5"><title>2024-02-28 9.3 mins</title></rect><rect fill="#ace7ae" height="4" rx="1" ry="1" width="4" x="53.199999999999996" y="35.9"><title>2024-02-29 1.45 mins</title></rect><rect fill="#69c16e" height="4" rx="1" ry="1" width="4" x="53.199999999999996" y="41.300000000000004"><title>2024-03-01 16.27 mins</title></rect><rect fill="#ace7ae" height="4" rx="1" ry="1" width="4" x="53.199999999999996" y="46.699999999999996"><title>2024-03-02 3.13 mins</title></rect><rect fill="#69c16e" height="4" rx="1" ry="1" width="4" x="53.199999999999996" y="52.1"><title>2024-03-03 13.0 mins</title></rect><text fill="#000000" style="font-size:2.5px; font-family:Arial" x="58.599999999999994" y="18.3">Mar</text><rect fill="#abe7ad" height="4" rx="1" ry="1" width="4" x="58.599999999999994" y="19.7"><title>2024-03-04 5.77 mins</title></rect><rect fill="#69c16e" height="4" rx="1" ry="1" width="4" x="58.599999999999994" y="25.1"><title>2024-03-05 14.62 mins</title></rect><rect fill="#68c06d" height="4" rx="1" ry="1" width="4" x="58.599999999999994" y="30.5"><title>2024-03-06 38.32 mins</title></rect><rect fill="#68c06d" height="4" rx="1" ry="1" width="4" x="58.599999999999994" y="35.9"><title>2024-03-07 30.7 mins</title></rect><rect fill="#ace7ae" height="4" rx="1" ry="1" width="4" x="58.599999999999994" y="41.300000000000004"><title>2024-03-08 0.35 mins</title></rect><rect fill="#abe7ad" height="4" rx="1" ry="1" width="4" x="58.599999999999994" y="46.699999999999996"><title>2024-03-09 6.02 mins</title></rect><rect fill="#abe6ad" height="4" rx="1" ry="1" width="4" x="58.599999999999994" y="52.1"><title>2024-03-10 11.67 mins</title></rect><rect fill="#abe7ad" height="4" rx="1" ry="1" width="4" x="63.99999999999999" y="19.7"><title>2024-03-11 6.27 mins</title></rect><rect fill="#68c06d" height="4" rx="1" ry="1" width="4" x="63.99999999999999" y="25.1"><title>2024-03-12 20.87 mins</title></rect><rect fill="#ace7ae" height="4" rx="1" ry="1" width="4" x="63.99999999999999" y="30.5"><title>2024-03-13 0.03 mins</title></rect><rect fill="#abe7ad" height="4" rx="1" ry="1" width="4" x="63.99999999999999" y="35.9"><title>2024-03-14 9.2 mins</title></rect><rect fill="#549F57" height="4" rx="1" ry="1" width="4" x="63.99999999999999" y="41.300000000000004"><title>2024-03-15 39.1 mins</title></rect><rect fill="#68c06d" height="4" rx="1" ry="1" width="4" x="63.99999999999999" y="46.699999999999996"><title>2024-03-16 31.07 mins</title></rect><rect fill="#549F57" height="4" rx="1" ry="1" width="4" x="63.99999999999999" y="52.1"><title>2024-03-17 576.13 mins</title></rect><rect fill="#69c16e" height="4" rx="1" ry="1" width="4" x="69.39999999999999" y="19.7"><title>2024-03-18 18.25 mins</title></rect><rect fill="#549F57" height="4" rx="1" ry="1" width="4" x="69.39999999999999" y="25.1"><title>2024-03-19 222.48 mins</title></rect><rect fill="#549F57" height="4" rx="1" ry="1" width="4" x="69.39999999999999" y="30.5"><title>2024-03-20 467.47 mins</title></rect><rect fill="#69c16d" height="4" rx="1" ry="1" width="4" x="69.39999999999999" y="35.9"><title>2024-03-21 19.57 mins</title></rect><rect fill="#69c16e" height="4" rx="1" ry="1" width="4" x="69.39999999999999" y="41.300000000000004"><title>2024-03-22 13.73 mins</title></rect><rect fill="#abe7ad" height="4" rx="1" ry="1" width="4" x="69.39999999999999" y="46.699999999999996"><title>2024-03-23 9.68 mins</title></rect><rect fill="#ace7ae" height="4" rx="1" ry="1" width="4" x="69.39999999999999" y="52.1"><title>2024-03-24 3.23 mins</title></rect><rect fill="#abe7ad" height="4" rx="1" ry="1" width="4" x="74.8" y="19.7"><title>2024-03-25 6.85 mins</title></rect><rect fill="#ace7ae" height="4" rx="1" ry="1" width="4" x="74.8" y="25.1"><title>2024-03-26 3.08 mins</title></rect><rect fill="#69c16e" height="4" rx="1" ry="1" width="4" x="74.8" y="30.5"><title>2024-03-27 16.95 mins</title></rect><rect fill="#abe7ad" height="4" rx="1" ry="1" width="4" x="74.8" y="35.9"><title>2024-03-28 8.93 mins</title></rect><rect fill="#ace7ae" height="4" rx="1" ry="1" width="4" x="74.8" y="41.300000000000004"><title>2024-03-29 2.75 mins</title></rect><rect fill="#549F57" height="4" rx="1" ry="1" width="4" x="74.8" y="46.699999999999996"><title>2024-03-30 168.45 mins</title></rect><rect fill="#ace7ae" height="4" rx="1" ry="1" width="4" x="74.8" y="52.1"><title>2024-03-31 0.03 mins</title></rect><text fill="#000000" style="font-size:2.5px; font-family:Arial" x="80.2" y="18.3">Apr</text><rect fill="#69c16e" height="4" rx="1" ry="1" width="4" x="80.2" y="19.7"><title>2024-04-01 13.93 mins</title></rect><rect fill="#69c16d" height="4" rx="1" ry="1" width="4" x="80.2" y="25.1"><title>2024-04-02 18.97 mins</title></rect><rect fill="#69c16e" height="4" rx="1" ry="1" width="4" x="80.2" y="30.5"><title>2024-04-03 13.75 mins</title></rect><rect fill="#abe7ad" height="4" rx="1" ry="1" width="4" x="80.2" y="35.9"><title>2024-04-04 9.42 mins</title></rect><rect fill="#69c16d" height="4" rx="1" ry="1" width="4" x="80.2" y="41.300000000000004"><title>2024-04-05 19.53 mins</title></rect><rect fill="#ace7ae" height="4" rx="1" ry="1" width="4" x="80.2" y="46.699999999999996"><title>2024-04-06 1.82 mins</title></rect><rect fill="#69c16e" height="4" rx="1" ry="1" width="4" x="80.2" y="52.1"><title>2024-04-07 14.73 mins</title></rect><rect fill="#ace7ae" height="4" rx="1" ry="1" width="4" x="85.60000000000001" y="19.7"><title>2024-04-08 2.68 mins</title></rect><rect fill="#ace7ae" height="4" rx="1" ry="1" width="4" x="85.60000000000001" y="25.1"><title>2024-04-09 3.62 mins</title></rect><rect fill="#abe7ad" height="4" rx="1" ry="1" width="4" x="85.60000000000001" y="30.5"><title>2024-04-10 5.5 mins</title></rect><rect fill="#ace7ae" height="4" rx="1" ry="1" width="4" x="85.60000000000001" y="35.9"><title>2024-04-11 3.72 mins</title></rect><rect fill="#549F57" height="4" rx="1" ry="1" width="4" x="85.60000000000001" y="41.300000000000004"><title>2024-04-12 254.03 mins</title></rect><rect fill="#549F57" height="4" rx="1" ry="1" width="4" x="85.60000000000001" y="46.699999999999996"><title>2024-04-13 359.8 mins</title></rect><rect fill="#EBEDF0" height="4" rx="1" ry="1" width="4" x="85.60000000000001" y="52.1"><title>2024-04-14</title></rect><rect fill="#68c06d" height="4" rx="1" ry="1" width="4" x="91.00000000000001" y="19.7"><title>2024-04-15 24.22 mins</title></rect><rect fill="#68c06d" height="4" rx="1" ry="1" width="4" x="91.00000000000001" y="25.1"><title>2024-04-16 23.38 mins</title></rect><rect fill="#abe7ad" height="4" rx="1" ry="1" width="4" x="91.00000000000001" y="30.5"><title>2024-04-17 10.6 mins</title></rect><rect fill="#549F57" height="4" rx="1" ry="1" width="4" x="91.00000000000001" y="35.9"><title>2024-04-18 416.43 mins</title></rect><rect fill="#549F57" height="4" rx="1" ry="1" width="4" x="91.00000000000001" y="41.300000000000004"><title>2024-04-19 453.83 mins</title></rect><rect fill="#549F57" height="4" rx="1" ry="1" width="4" x="91.00000000000001" y="46.699999999999996"><title>2024-04-20 49.0 mins</title></rect><rect fill="#549F57" height="4" rx="1" ry="1" width="4" x="91.00000000000001" y="52.1"><title>2024-04-21 111.43 mins</title></rect><rect fill="#549F57" height="4" rx="1" ry="1" width="4" x="96.40000000000002" y="19.7"><title>2024-04-22 83.7 mins</title></rect><rect fill="#69c16e" height="4" rx="1" ry="1" width="4" x="96.40000000000002" y="25.1"><title>2024-04-23 17.18 mins</title></rect><rect fill="#EBEDF0" height="4" rx="1" ry="1" width="4" x="96.40000000000002" y="30.5"><title>2024-04-24</title></rect><rect fill="#abe6ad" height="4" rx="1" ry="1" width="4" x="96.40000000000002" y="35.9"><title>2024-04-25 11.17 mins</title></rect><rect fill="#abe7ad" height="4" rx="1" ry="1" width="4" x="96.40000000000002" y="41.300000000000004"><title>2024-04-26 8.77 mins</title></rect><rect fill="#abe6ad" height="4" rx="1" ry="1" width="4" x="96.40000000000002" y="46.699999999999996"><title>2024-04-27 11.95 mins</title></rect><rect fill="#69c16e" height="4" rx="1" ry="1" width="4" x="96.40000000000002" y="52.1"><title>2024-04-28 13.0 mins</title></rect><rect fill="#abe6ad" height="4" rx="1" ry="1" width="4" x="101.80000000000003" y="19.7"><title>2024-04-29 11.5 mins</title></rect><rect fill="#ace7ae" height="4" rx="1" ry="1" width="4" x="101.80000000000003" y="25.1"><title>2024-04-30 3.62 mins</title></rect><rect fill="#549F57" height="4" rx="1" ry="1" width="4" x="101.80000000000003" y="30.5"><title>2024-05-01 41.42 mins</title></rect><rect fill="#549F57" height="4" rx="1" ry="1" width="4" x="101.80000000000003" y="35.9"><title>2024-05-02 148.48 mins</title></rect><rect fill="#ace7ae" height="4" rx="1" ry="1" width="4" x="101.80000000000003" y="41.300000000000004"><title>2024-05-03 3.73 mins</title></rect><rect fill="#68c06d" height="4" rx="1" ry="1" width="4" x="101.80000000000003" y="46.699999999999996"><title>2024-05-04 29.22 mins</title></rect><rect fill="#549F57" height="4" rx="1" ry="1" width="4" x="101.80000000000003" y="52.1"><title>2024-05-05 39.55 mins</title></rect><text fill="#000000" style="font-size:2.5px; font-family:Arial" x="107.20000000000003" y="18.3">May</text><rect fill="#68c06d" height="4" rx="1" ry="1" width="4" x="107.20000000000003" y="19.7"><title>2024-05-06 25.35 mins</title></rect><rect fill="#69c16e" height="4" rx="1" ry="1" width="4" x="107.20000000000003" y="25.1"><title>2024-05-07 16.45 mins</title></rect><rect fill="#549F57" height="4" rx="1" ry="1" width="4" x="107.20000000000003" y="30.5"><title>2024-05-08 90.82 mins</title></rect><rect fill="#abe7ad" height="4" rx="1" ry="1" width="4" x="107.20000000000003" y="35.9"><title>2024-05-09 10.32 mins</title></rect><rect fill="#ace7ae" height="4" rx="1" ry="1" width="4" x="107.20000000000003" y="41.300000000000004"><title>2024-05-10 0.47 mins</title></rect><rect fill="#69c16e" height="4" rx="1" ry="1" width="4" x="107.20000000000003" y="46.699999999999996"><title>2024-05-11 12.95 mins</title></rect><rect fill="#68c06d" height="4" rx="1" ry="1" width="4" x="107.20000000000003" y="52.1"><title>2024-05-12 31.83 mins</title></rect><rect fill="#549F57" height="4" rx="1" ry="1" width="4" x="112.60000000000004" y="19.7"><title>2024-05-13 41.25 mins</title></rect><rect fill="#549F57" height="4" rx="1" ry="1" width="4" x="112.60000000000004" y="25.1"><title>2024-05-14 85.02 mins</title></rect><rect fill="#549F57" height="4" rx="1" ry="1" width="4" x="112.60000000000004" y="30.5"><title>2024-05-15 1093.12 mins</title></rect><rect fill="#68c06d" height="4" rx="1" ry="1" width="4" x="112.60000000000004" y="35.9"><title>2024-05-16 35.63 mins</title></rect><rect fill="#abe7ad" height="4" rx="1" ry="1" width="4" x="112.60000000000004" y="41.300000000000004"><title>2024-05-17 9.77 mins</title></rect><rect fill="#abe7ad" height="4" rx="1" ry="1" width="4" x="112.60000000000004" y="46.699999999999996"><title>2024-05-18 6.93 mins</title></rect><rect fill="#68c06d" height="4" rx="1" ry="1" width="4" x="112.60000000000004" y="52.1"><title>2024-05-19 22.67 mins</title></rect><rect fill="#549F57" height="4" rx="1" ry="1" width="4" x="118.00000000000004" y="19.7"><title>2024-05-20 43.15 mins</title></rect><rect fill="#68c06d" height="4" rx="1" ry="1" width="4" x="118.00000000000004" y="25.1"><title>2024-05-21 36.4 mins</title></rect><rect fill="#68c06d" height="4" rx="1" ry="1" width="4" x="118.00000000000004" y="30.5"><title>2024-05-22 31.02 mins</title></rect><rect fill="#ace7ae" height="4" rx="1" ry="1" width="4" x="118.00000000000004" y="35.9"><title>2024-05-23 4.02 mins</title></rect><rect fill="#abe7ad" height="4" rx="1" ry="1" width="4" x="118.00000000000004" y="41.300000000000004"><title>2024-05-24 8.3 mins</title></rect><rect fill="#69c16e" height="4" rx="1" ry="1" width="4" x="118.00000000000004" y="46.699999999999996"><title>2024-05-25 18.33 mins</title></rect><rect fill="#ace7ae" height="4" rx="1" ry="1" width="4" x="118.00000000000004" y="52.1"><title>2024-05-26 0.3 mins</title></rect><rect fill="#549F57" height="4" rx="1" ry="1" width="4" x="123.40000000000005" y="19.7"><title>2024-05-27 44.62 mins</title></rect><rect fill="#549F57" height="4" rx="1" ry="1" width="4" x="123.40000000000005" y="25.1"><title>2024-05-28 69.32 mins</title></rect><rect fill="#68c06d" height="4" rx="1" ry="1" width="4" x="123.40000000000005" y="30.5"><title>2024-05-29 23.23 mins</title></rect><rect fill="#549F57" height="4" rx="1" ry="1" width="4" x="123.40000000000005" y="35.9"><title>2024-05-30 53.47 mins</title></rect><rect fill="#549F57" height="4" rx="1" ry="1" width="4" x="123.40000000000005" y="41.300000000000004"><title>2024-05-31 109.25 mins</title></rect><rect fill="#549F57" height="4" rx="1" ry="1" width="4" x="123.40000000000005" y="46.699999999999996"><title>2024-06-01 328.75 mins</title></rect><rect fill="#68c06d" height="4" rx="1" ry="1" width="4" x="123.40000000000005" y="52.1"><title>2024-06-02 26.22 mins</title></rect><text fill="#000000" style="font-size:2.5px; font-family:Arial" x="128.80000000000004" y="18.3">Jun</text><rect fill="#EBEDF0" height="4" rx="1" ry="1" width="4" x="128.80000000000004" y="19.7"><title>2024-06-03</title></rect><rect fill="#69c16e" height="4" rx="1" ry="1" width="4" x="128.80000000000004" y="25.1"><title>2024-06-04 17.95 mins</title></rect><rect fill="#68c06d" height="4" rx="1" ry="1" width="4" x="128.80000000000004" y="30.5"><title>2024-06-05 38.03 mins</title></rect><rect fill="#549F57" height="4" rx="1" ry="1" width="4" x="128.80000000000004" y="35.9"><title>2024-06-06 58.37 mins</title></rect><rect fill="#69c16e" height="4" rx="1" ry="1" width="4" x="128.80000000000004" y="41.300000000000004"><title>2024-06-07 17.82 mins</title></rect><rect fill="#abe7ad" height="4" rx="1" ry="1" width="4" x="128.80000000000004" y="46.699999999999996"><title>2024-06-08 5.12 mins</title></rect><rect fill="#abe6ad" height="4" rx="1" ry="1" width="4" x="128.80000000000004" y="52.1"><title>2024-06-09 12.43 mins</title></rect><rect fill="#abe7ad" height="4" rx="1" ry="1" width="4" x="134.20000000000005" y="19.7"><title>2024-06-10 5.4 mins</title></rect><rect fill="#549F57" height="4" rx="1" ry="1" width="4" x="134.20000000000005" y="25.1"><title>2024-06-11 48.15 mins</title></rect><rect fill="#69c16d" height="4" rx="1" ry="1" width="4" x="134.20000000000005" y="30.5"><title>2024-06-12 19.2 mins</title></rect><rect fill="#69c16d" height="4" rx="1" ry="1" width="4" x="134.20000000000005" y="35.9"><title>2024-06-13 19.33 mins</title></rect><rect fill="#68c06d" height="4" rx="1" ry="1" width="4" x="134.20000000000005" y="41.300000000000004"><title>2024-06-14 25.37 mins</title></rect><rect fill="#549F57" height="4" rx="1" ry="1" width="4" x="134.20000000000005" y="46.699999999999996"><title>2024-06-15 546.23 mins</title></rect><rect fill="#549F57" height="4" rx="1" ry="1" width="4" x="134.20000000000005" y="52.1"><title>2024-06-16 872.62 mins</title></rect><rect fill="#ace7ae" height="4" rx="1" ry="1" width="4" x="139.60000000000005" y="19.7"><title>2024-06-17 0.63 mins</title></rect><rect fill="#abe7ad" height="4" rx="1" ry="1" width="4" x="139.60000000000005" y="25.1"><title>2024-06-18 8.55 mins</title></rect><rect fill="#abe7ad" height="4" rx="1" ry="1" width="4" x="139.60000000000005" y="30.5"><title>2024-06-19 5.65 mins</title></rect><rect fill="#69c16e" height="4" rx="1" ry="1" width="4" x="139.60000000000005" y="35.9"><title>2024-06-20 14.68 mins</title></rect><rect fill="#ace7ae" height="4" rx="1" ry="1" width="4" x="139.60000000000005" y="41.300000000000004"><title>2024-06-21 3.32 mins</title></rect><rect fill="#abe7ad" height="4" rx="1" ry="1" width="4" x="139.60000000000005" y="46.699999999999996"><title>2024-06-22 6.17 mins</title></rect><rect fill="#abe7ad" height="4" rx="1" ry="1" width="4" x="139.60000000000005" y="52.1"><title>2024-06-23 7.35 mins</title></rect><rect fill="#abe7ad" height="4" rx="1" ry="1" width="4" x="145.00000000000006" y="19.7"><title>2024-06-24 6.52 mins</title></rect><rect fill="#abe7ad" height="4" rx="1" ry="1" width="4" x="145.00000000000006" y="25.1"><title>2024-06-25 7.73 mins</title></rect><rect fill="#EBEDF0" height="4" rx="1" ry="1" width="4" x="145.00000000000006" y="30.5"><title>2024-06-26</title></rect><rect fill="#ace7ae" height="4" rx="1" ry="1" width="4" x="145.00000000000006" y="35.9"><title>2024-06-27 1.28 mins</title></rect><rect fill="#abe7ae" height="4" rx="1" ry="1" width="4" x="145.00000000000006" y="41.300000000000004"><title>2024-06-28 5.0 mins</title></rect><rect fill="#abe7ad" height="4" rx="1" ry="1" width="4" x="145.00000000000006" y="46.699999999999996"><title>2024-06-29 8.68 mins</title></rect><rect fill="#abe7ad" height="4" rx="1" ry="1" width="4" x="145.00000000000006" y="52.1"><title>2024-06-30 10.25 mins</title></rect><text fill="#000000" style="font-size:2.5px; font-family:Arial" x="150.40000000000006" y="18.3">Jul</text><rect fill="#549F57" height="4" rx="1" ry="1" width="4" x="150.40000000000006" y="19.7"><title>2024-07-01 102.4 mins</title></rect><rect fill="#ace7ae" height="4" rx="1" ry="1" width="4" x="150.40000000000006" y="25.1"><title>2024-07-02 0.03 mins</title></rect><rect fill="#ace7ae" height="4" rx="1" ry="1" width="4" x="150.40000000000006" y="30.5"><title>2024-07-03 0.47 mins</title></rect><rect fill="#ace7ae" height="4" rx="1" ry="1" width="4" x="150.40000000000006" y="35.9"><title>2024-07-04 1.03 mins</title></rect><rect fill="#ace7ae" height="4" rx="1" ry="1" width="4" x="150.40000000000006" y="41.300000000000004"><title>2024-07-05 3.73 mins</title></rect><rect fill="#abe6ad" height="4" rx="1" ry="1" width="4" x="150.40000000000006" y="46.699999999999996"><title>2024-07-06 11.28 mins</title></rect><rect fill="#ace7ae" height="4" rx="1" ry="1" width="4" x="150.40000000000006" y="52.1"><title>2024-07-07 0.85 mins</title></rect><rect fill="#69c16e" height="4" rx="1" ry="1" width="4" x="155.80000000000007" y="19.7"><title>2024-07-08 18.08 mins</title></rect><rect fill="#68c06d" height="4" rx="1" ry="1" width="4" x="155.80000000000007" y="25.1"><title>2024-07-09 34.85 mins</title></rect><rect fill="#EBEDF0" height="4" rx="1" ry="1" width="4" x="155.80000000000007" y="30.5"><title>2024-07-10</title></rect><rect fill="#EBEDF0" height="4" rx="1" ry="1" width="4" x="155.80000000000007" y="35.9"><title>2024-07-11</title></rect><rect fill="#ace7ae" height="4" rx="1" ry="1" width="4" x="155.80000000000007" y="41.300000000000004"><title>2024-07-12 0.38 mins</title></rect><rect fill="#ace7ae" height="4" rx="1" ry="1" width="4" x="155.80000000000007" y="46.699999999999996"><title>2024-07-13 0.37 mins</title></rect><rect fill="#ace7ae" height="4" rx="1" ry="1" width="4" x="155.80000000000007" y="52.1"><title>2024-07-14 1.98 mins</title></rect><rect fill="#69c16e" height="4" rx="1" ry="1" width="4" x="161.20000000000007" y="19.7"><title>2024-07-15 12.77 mins</title></rect><rect fill="#ace7ae" height="4" rx="1" ry="1" width="4" x="161.20000000000007" y="25.1"><title>2024-07-16 4.85 mins</title></rect><rect fill="#abe7ad" height="4" rx="1" ry="1" width="4" x="161.20000000000007" y="30.5"><title>2024-07-17 5.38 mins</title></rect><rect fill="#ace7ae" height="4" rx="1" ry="1" width="4" x="161.20000000000007" y="35.9"><title>2024-07-18 1.32 mins</title></rect><rect fill="#ace7ae" height="4" rx="1" ry="1" width="4" x="161.20000000000007" y="41.300000000000004"><title>2024-07-19 1.63 mins</title></rect><rect fill="#68c06d" height="4" rx="1" ry="1" width="4" x="161.20000000000007" y="46.699999999999996"><title>2024-07-20 33.28 mins</title></rect><rect fill="#abe7ad" height="4" rx="1" ry="1" width="4" x="161.20000000000007" y="52.1"><title>2024-07-21 9.5 mins</title></rect><rect fill="#abe7ad" height="4" rx="1" ry="1" width="4" x="166.60000000000008" y="19.7"><title>2024-07-22 7.48 mins</title></rect><rect fill="#EBEDF0" height="4" rx="1" ry="1" width="4" x="166.60000000000008" y="25.1"><title>2024-07-23</title></rect><rect fill="#ace7ae" height="4" rx="1" ry="1" width="4" x="166.60000000000008" y="30.5"><title>2024-07-24 0.67 mins</title></rect><rect fill="#ace7ae" height="4" rx="1" ry="1" width="4" x="166.60000000000008" y="35.9"><title>2024-07-25 0.05 mins</title></rect><rect fill="#68c06d" height="4" rx="1" ry="1" width="4" x="166.60000000000008" y="41.300000000000004"><title>2024-07-26 33.0 mins</title></rect><rect fill="#ace7ae" height="4" rx="1" ry="1" width="4" x="166.60000000000008" y="46.699999999999996"><title>2024-07-27 0.17 mins</title></rect><rect fill="#549F57" height="4" rx="1" ry="1" width="4" x="166.60000000000008" y="52.1"><title>2024-07-28 72.33 mins</title></rect><rect fill="#549F57" height="4" rx="1" ry="1" width="4" x="172.00000000000009" y="19.7"><title>2024-07-29 105.97 mins</title></rect><rect fill="#68c06d" height="4" rx="1" ry="1" width="4" x="172.00000000000009" y="25.1"><title>2024-07-30 24.08 mins</title></rect><rect fill="#EBEDF0" height="4" rx="1" ry="1" width="4" x="172.00000000000009" y="30.5"><title>2024-07-31</title></rect><rect fill="#abe6ad" height="4" rx="1" ry="1" width="4" x="172.00000000000009" y="35.9"><title>2024-08-01 11.35 mins</title></rect><rect fill="#ace7ae" height="4" rx="1" ry="1" width="4" x="172.00000000000009" y="41.300000000000004"><title>2024-08-02 0.83 mins</title></rect><rect fill="#EBEDF0" height="4" rx="1" ry="1" width="4" x="172.00000000000009" y="46.699999999999996"><title>2024-08-03</title></rect><rect fill="#549F57" height="4" rx="1" ry="1" width="4" x="172.00000000000009" y="52.1"><title>2024-08-04 44.25 mins</title></rect><text fill="#000000" style="font-size:2.5px; font-family:Arial" x="177.4000000000001" y="18.3">Aug</text><rect fill="#ace7ae" height="4" rx="1" ry="1" width="4" x="177.4000000000001" y="19.7"><title>2024-08-05 2.45 mins</title></rect><rect fill="#68c06d" height="4" rx="1" ry="1" width="4" x="177.4000000000001" y="25.1"><title>2024-08-06 38.03 mins</title></rect><rect fill="#68c06d" height="4" rx="1" ry="1" width="4" x="177.4000000000001" y="30.5"><title>2024-08-07 26.38 mins</title></rect><rect fill="#ace7ae" height="4" rx="1" ry="1" width="4" x="177.4000000000001" y="35.9"><title>2024-08-08 1.03 mins</title></rect><rect fill="#ace7ae" height="4" rx="1" ry="1" width="4" x="177.4000000000001" y="41.300000000000004"><title>2024-08-09 4.08 mins</title></rect><rect fill="#ace7ae" height="4" rx="1" ry="1" width="4" x="177.4000000000001" y="46.699999999999996"><title>2024-08-10 2.02 mins</title></rect><rect fill="#abe7ad" height="4" rx="1" ry="1" width="4" x="177.4000000000001" y="52.1"><title>2024-08-11 10.13 mins</title></rect><rect fill="#68c06d" height="4" rx="1" ry="1" width="4" x="182.8000000000001" y="19.7"><title>2024-08-12 25.58 mins</title></rect><rect fill="#EBEDF0" height="4" rx="1" ry="1" width="4" x="182.8000000000001" y="25.1"><title>2024-08-13</title></rect><rect fill="#68c06d" height="4" rx="1" ry="1" width="4" x="182.8000000000001" y="30.5"><title>2024-08-14 29.77 mins</title></rect><rect fill="#EBEDF0" height="4" rx="1" ry="1" width="4" x="182.8000000000001" y="35.9"><title>2024-08-15</title></rect><rect fill="#69c16e" height="4" rx="1" ry="1" width="4" x="182.8000000000001" y="41.300000000000004"><title>2024-08-16 13.28 mins</title></rect><rect fill="#ace7ae" height="4" rx="1" ry="1" width="4" x="182.8000000000001" y="46.699999999999996"><title>2024-08-17 0.22 mins</title></rect><rect fill="#EBEDF0" height="4" rx="1" ry="1" width="4" x="182.8000000000001" y="52.1"><title>2024-08-18</title></rect><rect fill="#68c06d" height="4" rx="1" ry="1" width="4" x="188.2000000000001" y="19.7"><title>2024-08-19 27.3 mins</title></rect><rect fill="#abe6ad" height="4" rx="1" ry="1" width="4" x="188.2000000000001" y="25.1"><title>2024-08-20 11.92 mins</title></rect><rect fill="#ace7ae" height="4" rx="1" ry="1" width="4" x="188.2000000000001" y="30.5"><title>2024-08-21 0.03 mins</title></rect><rect fill="#abe7ad" height="4" rx="1" ry="1" width="4" x="188.2000000000001" y="35.9"><title>2024-08-22 10.95 mins</title></rect><rect fill="#abe6ad" height="4" rx="1" ry="1" width="4" x="188.2000000000001" y="41.300000000000004"><title>2024-08-23 11.8 mins</title></rect><rect fill="#ace7ae" height="4" rx="1" ry="1" width="4" x="188.2000000000001" y="46.699999999999996"><title>2024-08-24 0.93 mins</title></rect><rect fill="#ace7ae" height="4" rx="1" ry="1" width="4" x="188.2000000000001" y="52.1"><title>2024-08-25 0.75 mins</title></rect><rect fill="#68c06d" height="4" rx="1" ry="1" width="4" x="193.6000000000001" y="19.7"><title>2024-08-26 28.5 mins</title></rect><rect fill="#ace7ae" height="4" rx="1" ry="1" width="4" x="193.6000000000001" y="25.1"><title>2024-08-27 0.1 mins</title></rect><rect fill="#68c06d" height="4" rx="1" ry="1" width="4" x="193.6000000000001" y="30.5"><title>2024-08-28 31.8 mins</title></rect><rect fill="#69c16e" height="4" rx="1" ry="1" width="4" x="193.6000000000001" y="35.9"><title>2024-08-29 18.4 mins</title></rect><rect fill="#68c06d" height="4" rx="1" ry="1" width="4" x="193.6000000000001" y="41.300000000000004"><title>2024-08-30 25.22 mins</title></rect><rect fill="#ace7ae" height="4" rx="1" ry="1" width="4" x="193.6000000000001" y="46.699999999999996"><title>2024-08-31 0.03 mins</title></rect><rect fill="#ace7ae" height="4" rx="1" ry="1" width="4" x="193.6000000000001" y="52.1"><title>2024-09-01 0.65 mins</title></rect><text fill="#000000" style="font-size:2.5px; font-family:Arial" x="199.0000000000001" y="18.3">Sep</text><rect fill="#549F57" height="4" rx="1" ry="1" width="4" x="199.0000000000001" y="19.7"><title>2024-09-02 493.82 mins</title></rect><rect fill="#ace7ae" height="4" rx="1" ry="1" width="4" x="199.0000000000001" y="25.1"><title>2024-09-03 0.23 mins</title></rect><rect fill="#abe7ad" height="4" rx="1" ry="1" width="4" x="199.0000000000001" y="30.5"><title>2024-09-04 10.82 mins</title></rect><rect fill="#ace7ae" height="4" rx="1" ry="1" width="4" x="199.0000000000001" y="35.9"><title>2024-09-05 1.4 mins</title></rect><rect fill="#549F57" height="4" rx="1" ry="1" width="4" x="199.0000000000001" y="41.300000000000004"><title>2024-09-06 125.57 mins</title></rect><rect fill="#ace7ae" height="4" rx="1" ry="1" width="4" x="199.0000000000001" y="46.699999999999996"><title>2024-09-07 2.2 mins</title></rect><rect fill="#ace7ae" height="4" rx="1" ry="1" width="4" x="199.0000000000001" y="52.1"><title>2024-09-08 1.75 mins</title></rect><rect fill="#68c06d" height="4" rx="1" ry="1" width="4" x="204.40000000000012" y="19.7"><title>2024-09-09 30.25 mins</title></rect><rect fill="#69c16e" height="4" rx="1" ry="1" width="4" x="204.40000000000012" y="25.1"><title>2024-09-10 16.52 mins</title></rect><rect fill="#69c16e" height="4" rx="1" ry="1" width="4" x="204.40000000000012" y="30.5"><title>2024-09-11 15.97 mins</title></rect><rect fill="#ace7ae" height="4" rx="1" ry="1" width="4" x="204.40000000000012" y="35.9"><title>2024-09-12 0.33 mins</title></rect><rect fill="#EBEDF0" height="4" rx="1" ry="1" width="4" x="204.40000000000012" y="41.300000000000004"><title>2024-09-13</title></rect><rect fill="#549F57" height="4" rx="1" ry="1" width="4" x="204.40000000000012" y="46.699999999999996"><title>2024-09-14 171.78 mins</title></rect><rect fill="#549F57" height="4" rx="1" ry="1" width="4" x="204.40000000000012" y="52.1"><title>2024-09-15 943.37 mins</title></rect><rect fill="#69c16e" height="4" rx="1" ry="1" width="4" x="209.80000000000013" y="19.7"><title>2024-09-16 13.47 mins</title></rect><rect fill="#ace7ae" height="4" rx="1" ry="1" width="4" x="209.80000000000013" y="25.1"><title>2024-09-17 2.3 mins</title></rect><rect fill="#abe7ad" height="4" rx="1" ry="1" width="4" x="209.80000000000013" y="30.5"><title>2024-09-18 5.55 mins</title></rect><rect fill="#ace7ae" height="4" rx="1" ry="1" width="4" x="209.80000000000013" y="35.9"><title>2024-09-19 1.4 mins</title></rect><rect fill="#ace7ae" height="4" rx="1" ry="1" width="4" x="209.80000000000013" y="41.300000000000004"><title>2024-09-20 0.08 mins</title></rect><rect fill="#EBEDF0" height="4" rx="1" ry="1" width="4" x="209.80000000000013" y="46.699999999999996"><title>2024-09-21</title></rect><rect fill="#68c06d" height="4" rx="1" ry="1" width="4" x="209.80000000000013" y="52.1"><title>2024-09-22 29.48 mins</title></rect><rect fill="#ace7ae" height="4" rx="1" ry="1" width="4" x="215.20000000000013" y="19.7"><title>2024-09-23 0.57 mins</title></rect><rect fill="#ace7ae" height="4" rx="1" ry="1" width="4" x="215.20000000000013" y="25.1"><title>2024-09-24 0.17 mins</title></rect><rect fill="#ace7ae" height="4" rx="1" ry="1" width="4" x="215.20000000000013" y="30.5"><title>2024-09-25 0.32 mins</title></rect><rect fill="#abe7ad" height="4" rx="1" ry="1" width="4" x="215.20000000000013" y="35.9"><title>2024-09-26 6.78 mins</title></rect><rect fill="#ace7ae" height="4" rx="1" ry="1" width="4" x="215.20000000000013" y="41.300000000000004"><title>2024-09-27 0.17 mins</title></rect><rect fill="#abe7ad" height="4" rx="1" ry="1" width="4" x="215.20000000000013" y="46.699999999999996"><title>2024-09-28 9.28 mins</title></rect><rect fill="#68c06d" height="4" rx="1" ry="1" width="4" x="215.20000000000013" y="52.1"><title>2024-09-29 33.73 mins</title></rect><rect fill="#EBEDF0" height="4" rx="1" ry="1" width="4" x="220.60000000000014" y="19.7"><title>2024-09-30</title></rect><rect fill="#69c16e" height="4" rx="1" ry="1" width="4" x="220.60000000000014" y="25.1"><title>2024-10-01 13.58 mins</title></rect><rect fill="#69c16e" height="4" rx="1" ry="1" width="4" x="220.60000000000014" y="30.5"><title>2024-10-02 18.2 mins</title></rect><rect fill="#68c06d" height="4" rx="1" ry="1" width="4" x="220.60000000000014" y="35.9"><title>2024-10-03 29.08 mins</title></rect><rect fill="#abe7ad" height="4" rx="1" ry="1" width="4" x="220.60000000000014" y="41.300000000000004"><title>2024-10-04 5.72 mins</title></rect><rect fill="#EBEDF0" height="4" rx="1" ry="1" width="4" x="220.60000000000014" y="46.699999999999996"><title>2024-10-05</title></rect><rect fill="#ace7ae" height="4" rx="1" ry="1" width="4" x="220.60000000000014" y="52.1"><title>2024-10-06 0.37 mins</title></rect><text fill="#000000" style="font-size:2.5px; font-family:Arial" x="226.00000000000014" y="18.3">Oct</text><rect fill="#ace7ae" height="4" rx="1" ry="1" width="4" x="226.00000000000014" y="19.7"><title>2024-10-07 1.9 mins</title></rect><rect fill="#69c16e" height="4" rx="1" ry="1" width="4" x="226.00000000000014" y="25.1"><title>2024-10-08 12.6 mins</title></rect><rect fill="#ace7ae" height="4" rx="1" ry="1" width="4" x="226.00000000000014" y="30.5"><title>2024-10-09 0.47 mins</title></rect><rect fill="#ace7ae" height="4" rx="1" ry="1" width="4" x="226.00000000000014" y="35.9"><title>2024-10-10 4.0 mins</title></rect><rect fill="#ace7ae" height="4" rx="1" ry="1" width="4" x="226.00000000000014" y="41.300000000000004"><title>2024-10-11 2.23 mins</title></rect><rect fill="#EBEDF0" height="4" rx="1" ry="1" width="4" x="226.00000000000014" y="46.699999999999996"><title>2024-10-12</title></rect><rect fill="#EBEDF0" height="4" rx="1" ry="1" width="4" x="226.00000000000014" y="52.1"><title>2024-10-13</title></rect><rect fill="#68c06d" height="4" rx="1" ry="1" width="4" x="231.40000000000015" y="19.7"><title>2024-10-14 20.65 mins</title></rect><rect fill="#abe7ad" height="4" rx="1" ry="1" width="4" x="231.40000000000015" y="25.1"><title>2024-10-15 5.25 mins</title></rect><rect fill="#abe7ad" height="4" rx="1" ry="1" width="4" x="231.40000000000015" y="30.5"><title>2024-10-16 8.98 mins</title></rect><rect fill="#ace7ae" height="4" rx="1" ry="1" width="4" x="231.40000000000015" y="35.9"><title>2024-10-17 1.38 mins</title></rect><rect fill="#EBEDF0" height="4" rx="1" ry="1" width="4" x="231.40000000000015" y="41.300000000000004"><title>2024-10-18</title></rect><rect fill="#ace7ae" height="4" rx="1" ry="1" width="4" x="231.40000000000015" y="46.699999999999996"><title>2024-10-19 1.47 mins</title></rect><rect fill="#549F57" height="4" rx="1" ry="1" width="4" x="231.40000000000015" y="52.1"><title>2024-10-20 82.27 mins</title></rect><rect fill="#68c06d" height="4" rx="1" ry="1" width="4" x="236.80000000000015" y="19.7"><title>2024-10-21 23.28 mins</title></rect><rect fill="#69c16e" height="4" rx="1" ry="1" width="4" x="236.80000000000015" y="25.1"><title>2024-10-22 13.75 mins</title></rect><rect fill="#ace7ae" height="4" rx="1" ry="1" width="4" x="236.80000000000015" y="30.5"><title>2024-10-23 0.8 mins</title></rect><rect fill="#69c16e" height="4" rx="1" ry="1" width="4" x="236.80000000000015" y="35.9"><title>2024-10-24 17.57 mins</title></rect><rect fill="#abe7ad" height="4" rx="1" ry="1" width="4" x="236.80000000000015" y="41.300000000000004"><title>2024-10-25 10.97 mins</title></rect><rect fill="#ace7ae" height="4" rx="1" ry="1" width="4" x="236.80000000000015" y="46.699999999999996"><title>2024-10-26 1.37 mins</title></rect><rect fill="#549F57" height="4" rx="1" ry="1" width="4" x="236.80000000000015" y="52.1"><title>2024-10-27 41.38 mins</title></rect><rect fill="#abe7ad" height="4" rx="1" ry="1" width="4" x="242.20000000000016" y="19.7"><title>2024-10-28 6.6 mins</title></rect><rect fill="#abe7ad" height="4" rx="1" ry="1" width="4" x="242.20000000000016" y="25.1"><title>2024-10-29 10.47 mins</title></rect><rect fill="#69c16e" height="4" rx="1" ry="1" width="4" x="242.20000000000016" y="30.5"><title>2024-10-30 15.65 mins</title></rect><rect fill="#ace7ae" height="4" rx="1" ry="1" width="4" x="242.20000000000016" y="35.9"><title>2024-10-31 3.15 mins</title></rect><rect fill="#ace7ae" height="4" rx="1" ry="1" width="4" x="242.20000000000016" y="41.300000000000004"><title>2024-11-01 0.08 mins</title></rect><rect fill="#ace7ae" height="4" rx="1" ry="1" width="4" x="242.20000000000016" y="46.699999999999996"><title>2024-11-02 1.52 mins</title></rect><rect fill="#ace7ae" height="4" rx="1" ry="1" width="4" x="242.20000000000016" y="52.1"><title>2024-11-03 0.02 mins</title></rect><text fill="#000000" style="font-size:2.5px; font-family:Arial" x="247.60000000000016" y="18.3">Nov</text><rect fill="#ace7ae" height="4" rx="1" ry="1" width="4" x="247.60000000000016" y="19.7"><title>2024-11-04 2.67 mins</title></rect><rect fill="#549F57" height="4" rx="1" ry="1" width="4" x="247.60000000000016" y="25.1"><title>2024-11-05 745.6 mins</title></rect><rect fill="#ace7ae" height="4" rx="1" ry="1" width="4" x="247.60000000000016" y="30.5"><title>2024-11-06 3.57 mins</title></rect><rect fill="#68c06d" height="4" rx="1" ry="1" width="4" x="247.60000000000016" y="35.9"><title>2024-11-07 29.32 mins</title></rect><rect fill="#549F57" height="4" rx="1" ry="1" width="4" x="247.60000000000016" y="41.300000000000004"><title>2024-11-08 218.67 mins</title></rect><rect fill="#549F57" height="4" rx="1" ry="1" width="4" x="247.60000000000016" y="46.699999999999996"><title>2024-11-09 1075.28 mins</title></rect><rect fill="#ace7ae" height="4" rx="1" ry="1" width="4" x="247.60000000000016" y="52.1"><title>2024-11-10 0.95 mins</title></rect><rect fill="#549F57" height="4" rx="1" ry="1" width="4" x="253.00000000000017" y="19.7"><title>2024-11-11 343.58 mins</title></rect><rect fill="#549F57" height="4" rx="1" ry="1" width="4" x="253.00000000000017" y="25.1"><title>2024-11-12 93.55 mins</title></rect><rect fill="#68c06d" height="4" rx="1" ry="1" width="4" x="253.00000000000017" y="30.5"><title>2024-11-13 20.47 mins</title></rect><rect fill="#EBEDF0" height="4" rx="1" ry="1" width="4" x="253.00000000000017" y="35.9"><title>2024-11-14</title></rect><rect fill="#abe7ad" height="4" rx="1" ry="1" width="4" x="253.00000000000017" y="41.300000000000004"><title>2024-11-15 5.3 mins</title></rect><rect fill="#68c06d" height="4" rx="1" ry="1" width="4" x="253.00000000000017" y="46.699999999999996"><title>2024-11-16 22.28 mins</title></rect><rect fill="#69c16e" height="4" rx="1" ry="1" width="4" x="253.00000000000017" y="52.1"><title>2024-11-17 17.12 mins</title></rect><rect fill="#EBEDF0" height="4" rx="1" ry="1" width="4" x="258.40000000000015" y="19.7"><title>2024-11-18</title></rect><rect fill="#ace7ae" height="4" rx="1" ry="1" width="4" x="258.40000000000015" y="25.1"><title>2024-11-19 2.28 mins</title></rect><rect fill="#ace7ae" height="4" rx="1" ry="1" width="4" x="258.40000000000015" y="30.5"><title>2024-11-20 2.9 mins</title></rect><rect fill="#69c16d" height="4" rx="1" ry="1" width="4" x="258.40000000000015" y="35.9"><title>2024-11-21 19.05 mins</title></rect><rect fill="#68c06d" height="4" rx="1" ry="1" width="4" x="258.40000000000015" y="41.300000000000004"><title>2024-11-22 19.98 mins</title></rect><rect fill="#549F57" height="4" rx="1" ry="1" width="4" x="258.40000000000015" y="46.699999999999996"><title>2024-11-23 1028.87 mins</title></rect><rect fill="#ace7ae" height="4" rx="1" ry="1" width="4" x="258.40000000000015" y="52.1"><title>2024-11-24 0.4 mins</title></rect><rect fill="#68c06d" height="4" rx="1" ry="1" width="4" x="263.8000000000001" y="19.7"><title>2024-11-25 22.93 mins</title></rect><rect fill="#549F57" height="4" rx="1" ry="1" width="4" x="263.8000000000001" y="25.1"><title>2024-11-26 109.35 mins</title></rect><rect fill="#ace7ae" height="4" rx="1" ry="1" width="4" x="263.8000000000001" y="30.5"><title>2024-11-27 3.63 mins</title></rect><rect fill="#ace7ae" height="4" rx="1" ry="1" width="4" x="263.8000000000001" y="35.9"><title>2024-11-28 3.17 mins</title></rect><rect fill="#68c06d" height="4" rx="1" ry="1" width="4" x="263.8000000000001" y="41.300000000000004"><title>2024-11-29 20.67 mins</title></rect><rect fill="#ace7ae" height="4" rx="1" ry="1" width="4" x="263.8000000000001" y="46.699999999999996"><title>2024-11-30 3.67 mins</title></rect><rect fill="#ace7ae" height="4" rx="1" ry="1" width="4" x="263.8000000000001" y="52.1"><title>2024-12-01 3.5 mins</title></rect><text fill="#000000" style="font-size:2.5px; font-family:Arial" x="269.2000000000001" y="18.3">Dec</text><rect fill="#ace7ae" height="4" rx="1" ry="1" width="4" x="269.2000000000001" y="19.7"><title>2024-12-02 0.68 mins</title></rect><rect fill="#ace7ae" height="4" rx="1" ry="1" width="4" x="269.2000000000001" y="25.1"><title>2024-12-03 3.87 mins</title></rect><rect fill="#ace7ae" height="4" rx="1" ry="1" width="4" x="269.2000000000001" y="30.5"><title>2024-12-04 1.17 mins</title></rect><rect fill="#ace7ae" height="4" rx="1" ry="1" width="4" x="269.2000000000001" y="35.9"><title>2024-12-05 0.22 mins</title></rect><rect fill="#ace7ae" height="4" rx="1" ry="1" width="4" x="269.2000000000001" y="41.300000000000004"><title>2024-12-06 3.3 mins</title></rect><rect fill="#68c06d" height="4" rx="1" ry="1" width="4" x="269.2000000000001" y="46.699999999999996"><title>2024-12-07 23.97 mins</title></rect><rect fill="#abe7ad" height="4" rx="1" ry="1" width="4" x="269.2000000000001" y="52.1"><title>2024-12-08 9.3 mins</title></rect><rect fill="#549F57" height="4" rx="1" ry="1" width="4" x="274.6000000000001" y="19.7"><title>2024-12-09 56.7 mins</title></rect><rect fill="#68c06d" height="4" rx="1" ry="1" width="4" x="274.6000000000001" y="25.1"><title>2024-12-10 32.43 mins</title></rect><rect fill="#549F57" height="4" rx="1" ry="1" width="4" x="274.6000000000001" y="30.5"><title>2024-12-11 43.98 mins</title></rect><rect fill="#69c16e" height="4" rx="1" ry="1" width="4" x="274.6000000000001" y="35.9"><title>2024-12-12 14.07 mins</title></rect><rect fill="#EBEDF0" height="4" rx="1" ry="1" width="4" x="274.6000000000001" y="41.300000000000004"><title>2024-12-13</title></rect><rect fill="#EBEDF0" height="4" rx="1" ry="1" width="4" x="274.6000000000001" y="46.699999999999996"><title>2024-12-14</title></rect><rect fill="#EBEDF0" height="4" rx="1" ry="1" width="4" x="274.6000000000001" y="52.1"><title>2024-12-15</title></rect><rect fill="#EBEDF0" height="4" rx="1" ry="1" width="4" x="280.00000000000006" y="19.7"><title>2024-12-16</title></rect><rect fill="#EBEDF0" height="4" rx="1" ry="1" width="4" x="280.00000000000006" y="25.1"><title>2024-12-17</title></rect><rect fill="#EBEDF0" height="4" rx="1" ry="1" width="4" x="280.00000000000006" y="30.5"><title>2024-12-18</title></rect><rect fill="#EBEDF0" height="4" rx="1" ry="1" width="4" x="280.00000000000006" y="35.9"><title>2024-12-19</title></rect><rect fill="#EBEDF0" height="4" rx="1" ry="1" width="4" x="280.00000000000006" y="41.300000000000004"><title>2024-12-20</title></rect><rect fill="#EBEDF0" height="4" rx="1" ry="1" width="4" x="280.00000000000006" y="46.699999999999996"><title>2024-12-21</title></rect><rect fill="#EBEDF0" height="4" rx="1" ry="1" width="4" x="280.00000000000006" y="52.1"><title>2024-12-22</title></rect><rect fill="#EBEDF0" height="4" rx="1" ry="1" width="4" x="285.40000000000003" y="19.7"><title>2024-12-23</title></rect><rect fill="#EBEDF0" height="4" rx="1" ry="1" width="4" x="285.40000000000003" y="25.1"><title>2024-12-24</title></rect><rect fill="#EBEDF0" height="4" rx="1" ry="1" width="4" x="285.40000000000003" y="30.5"><title>2024-12-25</title></rect><rect fill="#EBEDF0" height="4" rx="1" ry="1" width="4" x="285.40000000000003" y="35.9"><title>2024-12-26</title></rect><rect fill="#EBEDF0" height="4" rx="1" ry="1" width="4" x="285.40000000000003" y="41.300000000000004"><title>2024-12-27</title></rect><rect fill="#EBEDF0" height="4" rx="1" ry="1" width="4" x="285.40000000000003" y="46.699999999999996"><title>2024-12-28</title></rect><rect fill="#EBEDF0" height="4" rx="1" ry="1" width="4" x="285.40000000000003" y="52.1"><title>2024-12-29</title></rect><rect fill="#EBEDF0" height="4" rx="1" ry="1" width="4" x="290.8" y="19.7"><title>2024-12-30</title></rect><rect fill="#EBEDF0" height="4" rx="1" ry="1" width="4" x="290.8" y="25.1"><title>2024-12-31</title></rect></svg>